<svg xmlns="http://www.w3.org/2000/svg" width="40" height="41.668" viewBox="0 0 40 41.668">
  <title>home</title>
  <path d="M34,8.164H25.667V16.5H34V8.164ZM32.333,14.83h-5v-5h5v5Zm-10-6.667H14V16.5h8.333V8.164ZM20.667,14.83h-5v-5h5v5ZM39,43.165v-40H9v40H4v1.667H44V43.165H39Zm-11.667,0H20.667v-10h6.667v10Zm10,0H29V31.5H19V43.164H10.667V4.83H37.333V43.164Zm-15-23.333H14v8.333h8.333V19.83ZM20.667,26.5h-5v-5h5v5ZM34,19.83H25.667v8.333H34V19.83ZM32.333,26.5h-5v-5h5v5Z" transform="translate(-4 -3.164)" style="fill: #001826;fill-rule: evenodd"/>
</svg>
