<svg xmlns="http://www.w3.org/2000/svg" width="29.669" height="41.844" viewBox="0 0 29.669 41.844">
  <title>substance-highly-flammeable</title>
  <g>
    <g>
      <path d="M24.141,15.71" transform="translate(-9.165 -3.078)" style="fill: #001826"/>
      <path d="M24,43.021A14.851,14.851,0,0,1,9.165,28.186c0-7.886,13.328-22.949,13.9-23.587l1.355-1.522,6.255,15.746-2.336.928L23.6,7.824c-4.254,5.051-11.918,15.213-11.918,20.362a12.321,12.321,0,1,0,24.642,0c0-2.121-.963-4.236-2.557-7.74-0.648-1.423-1.382-3.037-2.2-4.979l2.315-.981C34.683,16.4,35.41,18,36.051,19.4c1.735,3.813,2.784,6.116,2.784,8.782A14.853,14.853,0,0,1,24,43.021Z" transform="translate(-9.165 -3.078)" style="fill: #001826"/>
      <path d="M23.5,43.078h-0.1c-3.983-.057-7.177-3.615-7.119-7.934,0.053-3.962,5.757-10.936,6.407-11.719l0.994-1.2,0.961,1.223a55.034,55.034,0,0,1,3.533,5.158c1.742,2.915,2.578,5.118,2.557,6.738C30.681,39.61,27.435,43.078,23.5,43.078Zm0.125-16.793c-2.161,2.816-4.8,6.9-4.828,8.893-0.04,2.933,2.043,5.387,4.642,5.387H23.5c2.565,0,4.683-2.356,4.721-5.251,0.009-.633-0.266-2.177-2.2-5.414C25.189,28.5,24.286,27.2,23.629,26.285Z" transform="translate(-9.165 -3.078)" style="fill: #001826"/>
    </g>
    <rect x="1.349" y="39" width="26.972" height="2.844" style="fill: #001826"/>
  </g>
</svg>
