<svg xmlns="http://www.w3.org/2000/svg" width="23.59" height="33.779" viewBox="0 0 23.59 33.779">
  <title>substance-flammeable</title>
  <g>
    <path d="M32.047,17.869a84.876,84.876,0,0,0-5.41-7.9L24.529,7.288,22.349,9.91c-1,1.209-9.813,12-9.9,18.278-0.095,7.008,5.12,12.786,11.627,12.878h0.152c6.417,0,11.714-5.629,11.808-12.546C36.073,25.906,34.768,22.422,32.047,17.869ZM24.238,38.315H24.1c-4.978-.073-8.967-4.6-8.892-10.088,0.058-4.341,6.085-12.729,9.263-16.558l0,0,0,0a81.861,81.861,0,0,1,5.211,7.612c2.419,4.047,3.631,7.143,3.6,9.2C33.214,33.9,29.153,38.312,24.238,38.315Z" transform="translate(-12.45 -7.288)" style="fill: #001826"/>
    <path d="M24.245,16.467s5.822,5.917,5.738,10.917" transform="translate(-12.45 -7.288)" style="fill: none;stroke: #001826;stroke-miterlimit: 10;stroke-width: 2px"/>
  </g>
</svg>
